<svg width="16" height="16" viewBox="0 0 16 16" fill="none" xmlns="http://www.w3.org/2000/svg">
<path d="M5.99996 7.33332C5.99996 7.86376 6.21067 8.37246 6.58575 8.74754C6.96082 9.12261 7.46953 9.33332 7.99996 9.33332C8.53039 9.33332 9.0391 9.12261 9.41417 8.74754C9.78925 8.37246 9.99996 7.86376 9.99996 7.33332C9.99996 6.80289 9.78925 6.29418 9.41417 5.91911C9.0391 5.54404 8.53039 5.33332 7.99996 5.33332C7.46953 5.33332 6.96082 5.54404 6.58575 5.91911C6.21067 6.29418 5.99996 6.80289 5.99996 7.33332Z" stroke="#707A8A" stroke-linecap="round" stroke-linejoin="round"/>
<path d="M11.7713 11.1046L8.94263 13.9333C8.69262 14.183 8.35368 14.3233 8.0003 14.3233C7.64691 14.3233 7.30797 14.183 7.05796 13.9333L4.22863 11.1046C3.48278 10.3587 2.97485 9.40842 2.76909 8.37387C2.56332 7.33931 2.66896 6.26697 3.07263 5.29244C3.47631 4.31792 4.15989 3.48498 5.03695 2.89896C5.91401 2.31294 6.94514 2.00015 7.99996 2.00015C9.05478 2.00015 10.0859 2.31294 10.963 2.89896C11.84 3.48498 12.5236 4.31792 12.9273 5.29244C13.331 6.26697 13.4366 7.33931 13.2308 8.37387C13.0251 9.40842 12.5171 10.3587 11.7713 11.1046Z" stroke="#707A8A" stroke-linecap="round" stroke-linejoin="round"/>
</svg>
