<svg width="100" height="100" viewBox="0 0 100 100" fill="none" xmlns="http://www.w3.org/2000/svg">
<path d="M25 87.5V79.1667C25 74.7464 26.7559 70.5072 29.8816 67.3816C33.0072 64.2559 37.2464 62.5 41.6667 62.5H58.3333C62.7536 62.5 66.9928 64.2559 70.1184 67.3816C73.244 70.5072 75 74.7464 75 79.1667V87.5M33.3333 29.1667C33.3333 33.5869 35.0893 37.8262 38.2149 40.9518C41.3405 44.0774 45.5797 45.8333 50 45.8333C54.4203 45.8333 58.6595 44.0774 61.7851 40.9518C64.9107 37.8262 66.6667 33.5869 66.6667 29.1667C66.6667 24.7464 64.9107 20.5072 61.7851 17.3816C58.6595 14.2559 54.4203 12.5 50 12.5C45.5797 12.5 41.3405 14.2559 38.2149 17.3816C35.0893 20.5072 33.3333 24.7464 33.3333 29.1667Z" stroke="#707A8A" stroke-width="1.5" stroke-linecap="round" stroke-linejoin="round"/>
</svg>
