<svg width="16" height="16" viewBox="0 0 16 16" fill="none" xmlns="http://www.w3.org/2000/svg">
<path d="M9.99996 7.33333V7.34M10.6666 2V4.53533C11.4917 5.01275 12.1199 5.7683 12.4386 6.66667H13.3326C13.5094 6.66667 13.679 6.7369 13.804 6.86193C13.9291 6.98695 13.9993 7.15652 13.9993 7.33333V8.66667C13.9993 8.84348 13.9291 9.01305 13.804 9.13807C13.679 9.26309 13.5094 9.33333 13.3326 9.33333H12.438C12.2137 9.96692 11.8336 10.5339 11.3326 10.982V12.3333C11.3326 12.5985 11.2273 12.8529 11.0397 13.0404C10.8522 13.228 10.5979 13.3333 10.3326 13.3333C10.0674 13.3333 9.81306 13.228 9.62553 13.0404C9.43799 12.8529 9.33263 12.5985 9.33263 12.3333V11.9447C9.11233 11.9816 8.88934 12.0001 8.66597 12H5.9993C5.77593 12.0001 5.55294 11.9816 5.33264 11.9447V12.3333C5.33264 12.5985 5.22728 12.8529 5.03974 13.0404C4.85221 13.228 4.59785 13.3333 4.33264 13.3333C4.06742 13.3333 3.81307 13.228 3.62553 13.0404C3.43799 12.8529 3.33264 12.5985 3.33264 12.3333V10.982C2.72861 10.442 2.30282 9.73126 2.11162 8.94391C1.92043 8.15656 1.97284 7.32972 2.26193 6.57281C2.55102 5.81591 3.06314 5.16465 3.73053 4.70522C4.39791 4.24579 5.18907 3.99987 5.9993 4H7.66597L10.666 2H10.6666Z" stroke="#707A8A" stroke-linecap="round" stroke-linejoin="round"/>
</svg>
