<svg width="71" height="70" viewBox="0 0 71 70" fill="none" xmlns="http://www.w3.org/2000/svg">
<rect x="0.666992" width="70" height="70" rx="35" fill="#114599"/>
<path d="M46.917 46.25L39.417 38.75M24.417 32.5C24.417 33.6491 24.6433 34.7869 25.083 35.8485C25.5228 36.9101 26.1673 37.8747 26.9798 38.6872C27.7923 39.4997 28.7569 40.1442 29.8185 40.5839C30.8801 41.0237 32.0179 41.25 33.167 41.25C34.3161 41.25 35.4539 41.0237 36.5155 40.5839C37.5771 40.1442 38.5417 39.4997 39.3542 38.6872C40.1667 37.8747 40.8112 36.9101 41.2509 35.8485C41.6907 34.7869 41.917 33.6491 41.917 32.5C41.917 31.3509 41.6907 30.2131 41.2509 29.1515C40.8112 28.0899 40.1667 27.1253 39.3542 26.3128C38.5417 25.5003 37.5771 24.8558 36.5155 24.4161C35.4539 23.9763 34.3161 23.75 33.167 23.75C32.0179 23.75 30.8801 23.9763 29.8185 24.4161C28.7569 24.8558 27.7923 25.5003 26.9798 26.3128C26.1673 27.1253 25.5228 28.0899 25.083 29.1515C24.6433 30.2131 24.417 31.3509 24.417 32.5Z" stroke="white" stroke-width="2" stroke-linecap="round" stroke-linejoin="round"/>
</svg>
