<svg width="30" height="30" viewBox="0 0 30 30" fill="none" xmlns="http://www.w3.org/2000/svg">
<path d="M20 22.5C20.663 22.5 21.2989 22.7634 21.7678 23.2322C22.2366 23.7011 22.5 24.337 22.5 25C22.5 24.337 22.7634 23.7011 23.2322 23.2322C23.7011 22.7634 24.337 22.5 25 22.5C24.337 22.5 23.7011 22.2366 23.2322 21.7678C22.7634 21.2989 22.5 20.663 22.5 20C22.5 20.663 22.2366 21.2989 21.7678 21.7678C21.2989 22.2366 20.663 22.5 20 22.5ZM20 7.5C20.663 7.5 21.2989 7.76339 21.7678 8.23223C22.2366 8.70107 22.5 9.33696 22.5 10C22.5 9.33696 22.7634 8.70107 23.2322 8.23223C23.7011 7.76339 24.337 7.5 25 7.5C24.337 7.5 23.7011 7.23661 23.2322 6.76777C22.7634 6.29893 22.5 5.66304 22.5 5C22.5 5.66304 22.2366 6.29893 21.7678 6.76777C21.2989 7.23661 20.663 7.5 20 7.5ZM11.25 22.5C11.25 20.5109 12.0402 18.6032 13.4467 17.1967C14.8532 15.7902 16.7609 15 18.75 15C16.7609 15 14.8532 14.2098 13.4467 12.8033C12.0402 11.3968 11.25 9.48912 11.25 7.5C11.25 9.48912 10.4598 11.3968 9.0533 12.8033C7.64678 14.2098 5.73912 15 3.75 15C5.73912 15 7.64678 15.7902 9.0533 17.1967C10.4598 18.6032 11.25 20.5109 11.25 22.5Z" stroke="black" stroke-width="1.5" stroke-linecap="round" stroke-linejoin="round"/>
</svg>
