<svg width="32" height="32" viewBox="0 0 32 32" fill="none" xmlns="http://www.w3.org/2000/svg">
<path d="M10.6667 9.33333V6.66667C10.6667 5.95942 10.9476 5.28115 11.4477 4.78105C11.9478 4.28095 12.6261 4 13.3333 4H18.6667C19.3739 4 20.0522 4.28095 20.5523 4.78105C21.0524 5.28115 21.3333 5.95942 21.3333 6.66667V9.33333M16 16V16.0133M4 17.3333C7.72211 19.2089 11.832 20.1859 16 20.1859C20.168 20.1859 24.2779 19.2089 28 17.3333M4 12C4 11.2928 4.28095 10.6145 4.78105 10.1144C5.28115 9.61428 5.95942 9.33333 6.66667 9.33333H25.3333C26.0406 9.33333 26.7189 9.61428 27.219 10.1144C27.719 10.6145 28 11.2928 28 12V24C28 24.7072 27.719 25.3855 27.219 25.8856C26.7189 26.3857 26.0406 26.6667 25.3333 26.6667H6.66667C5.95942 26.6667 5.28115 26.3857 4.78105 25.8856C4.28095 25.3855 4 24.7072 4 24V12Z" stroke="url(#paint0_linear_164_5763)" stroke-width="2" stroke-linecap="round" stroke-linejoin="round"/>
<defs>
<linearGradient id="paint0_linear_164_5763" x1="4" y1="15.3333" x2="28" y2="15.3333" gradientUnits="userSpaceOnUse">
<stop stop-color="#0057E2"/>
<stop offset="0.639423" stop-color="#0047BA"/>
<stop offset="1" stop-color="#003DA0"/>
</linearGradient>
</defs>
</svg>
